<svg width="24" height="24" viewBox="0 0 24 24" fill="none" xmlns="http://www.w3.org/2000/svg">
<path d="M17.5002 9.25016H19.3335C19.8197 9.25016 20.286 9.44332 20.6299 9.78713C20.9737 10.131 21.1668 10.5973 21.1668 11.0835V21.1668L17.5002 17.5002H12.0002C11.5139 17.5002 11.0476 17.307 10.7038 16.9632C10.36 16.6194 10.1668 16.1531 10.1668 15.6668V14.7502M13.8335 9.25016C13.8335 9.73639 13.6403 10.2027 13.2965 10.5465C12.9527 10.8903 12.4864 11.0835 12.0002 11.0835H6.50016L2.8335 14.7502V4.66683C2.8335 3.6585 3.6585 2.8335 4.66683 2.8335H12.0002C12.4864 2.8335 12.9527 3.02665 13.2965 3.37047C13.6403 3.71428 13.8335 4.1806 13.8335 4.66683V9.25016Z" stroke="#05489C" stroke-linecap="round" stroke-linejoin="round"/>
</svg>
